<svg width="151" height="151" viewBox="0 0 151 151" fill="none" xmlns="http://www.w3.org/2000/svg">
<path d="M117.451 0H32.9636C14.7583 0 0 14.7504 0 32.9459V117.388C0 135.584 14.7583 150.334 32.9636 150.334H117.451C135.657 150.334 150.415 135.584 150.415 117.388V32.9459C150.415 14.7504 135.657 0 117.451 0Z" fill="#FEFEFE"/>
<path d="M21.2784 86.3998C22.8917 86.1404 24.4789 85.7394 26.0217 85.2013C26.5947 85.0681 26.5547 84.7352 26.5281 84.3091C26.0452 80.5217 26.3077 76.6765 27.3008 72.9897C27.4435 72.5718 27.4615 72.1215 27.3527 71.6936C27.2439 71.2656 27.0129 70.8785 26.6879 70.5794C25.6886 69.514 24.756 68.3821 23.7567 67.3301C23.4009 67.0122 23.1744 66.5747 23.1204 66.1008C23.0663 65.6269 23.1885 65.1497 23.4635 64.7599C24.7019 62.6906 26.2171 60.7999 27.967 59.1402C28.1759 58.8995 28.4642 58.7416 28.7795 58.6952C29.0949 58.6488 29.4164 58.7169 29.6858 58.8872C31.2581 59.6462 32.8703 60.2987 34.4425 61.0312C34.692 61.1944 34.9837 61.2814 35.2819 61.2814C35.5802 61.2814 35.8719 61.1944 36.1214 61.0312C39.3346 58.9438 42.9786 57.6099 46.7806 57.1293C47.6466 56.9828 47.8065 56.61 47.8332 55.7976C47.8332 54.3461 47.5134 52.3885 48.2862 51.5895C49.059 50.7905 51.1508 51.2699 52.6431 51.3365C54.8016 51.443 56.9468 51.7094 59.092 51.9624C59.5135 52.0287 59.9168 52.1813 60.2767 52.4104C60.6367 52.6395 60.9454 52.9403 61.1838 53.2941C61.6309 53.8321 62.0447 54.3969 62.423 54.9853C63.7554 57.1826 65.4076 58.9804 68.2056 59.1402C68.3073 59.1266 68.4103 59.1266 68.512 59.1402C71.4966 59.9791 72.0296 61.0312 71.1768 64.0674C70.9104 64.9863 70.2575 64.64 69.8444 64.5335C67.3013 63.7927 64.6816 63.3459 62.0366 63.2018C54.8949 62.8556 45.688 64.8664 42.2371 73.1628C39.9853 78.6228 40.5716 84.1493 42.5302 89.5426C45.1472 96.401 49.4118 102.511 54.9482 107.334C60.761 112.782 67.7094 116.875 75.294 119.319C81.8627 121.37 88.538 122.116 95.1601 119.772C101.369 117.561 104.873 113.007 105.899 106.455C106.209 103.785 106.051 101.081 105.433 98.4649C105.305 97.7826 105.365 97.0784 105.606 96.4274C106.126 94.9892 106.752 93.5776 107.365 92.1527C107.658 91.4869 107.951 91.0341 108.91 91.4203C110.563 92.0861 112.308 92.5123 113.987 93.0982C114.396 93.219 114.775 93.4235 115.101 93.6986C115.427 93.9737 115.692 94.3134 115.879 94.6962C117.489 97.8925 118.732 101.261 119.583 104.737C119.756 105.549 119.476 105.669 118.903 105.842C118.165 106.137 117.396 106.351 116.612 106.482C114.693 106.601 114.4 107.72 114.653 109.278C115.141 112.66 114.845 116.109 113.787 119.359C113.679 119.666 113.66 119.997 113.73 120.315C113.801 120.633 113.959 120.924 114.187 121.157C115.346 122.422 116.399 123.82 117.558 125.019C117.834 125.257 118.012 125.588 118.059 125.949C118.106 126.31 118.017 126.676 117.811 126.976C116.611 129.238 115.039 131.282 113.161 133.022C112.967 133.25 112.697 133.401 112.402 133.447C112.106 133.494 111.803 133.433 111.549 133.275C110.07 132.583 108.551 131.944 107.058 131.291C106.719 131.078 106.327 130.965 105.926 130.965C105.525 130.965 105.133 131.078 104.793 131.291C101.674 133.267 98.1576 134.531 94.4939 134.993C93.428 135.18 93.0949 135.606 93.1615 136.671C93.2547 138.003 93.1615 139.334 93.1615 140.733H86.4995C86.2788 140.617 86.0399 140.541 85.7933 140.506C84.1003 140.719 82.3843 140.368 80.9121 139.505C79.4398 138.643 78.2939 137.319 77.6523 135.739C77.3867 135.172 76.9915 134.675 76.4985 134.289C76.0055 133.902 75.4286 133.637 74.8143 133.515C70.718 132.515 66.7808 130.951 63.1158 128.867C60.6242 127.389 58.4124 127.096 56.0408 128.747C55.706 129.007 55.2907 129.142 54.8671 129.127C54.4435 129.112 54.0385 128.95 53.7224 128.668C50.6179 126.484 47.5134 124.286 44.5421 121.916C43.8481 121.515 43.3276 120.871 43.0814 120.108C42.8353 119.345 42.881 118.519 43.2097 117.788C43.5296 117.023 43.5866 116.175 43.372 115.375C43.1574 114.575 42.6833 113.868 42.0239 113.366C39.2348 110.838 36.845 107.901 34.9355 104.657C34.1866 103.208 33.1147 101.95 31.8026 100.981C30.4905 100.011 28.9731 99.3552 27.3675 99.0642C26.792 98.9315 26.2594 98.6557 25.8191 98.2622C25.3788 97.8687 25.0452 97.3705 24.8492 96.8136C23.5168 93.9771 22.7973 90.9142 21.2251 88.1976L21.2784 86.3998Z" fill="#C6211C"/>
<path d="M77.2128 51.8958C77.426 50.4576 76.7997 48.4201 76.893 46.3693C76.893 45.3972 76.2401 45.3439 75.6938 45.1176C73.1487 44.1271 70.8858 42.5272 69.104 40.4583C67.3221 38.3895 66.0757 35.915 65.4743 33.2522C64.7792 30.1962 64.9544 27.0067 65.9799 24.0451C67.0054 21.0834 68.8403 18.468 71.2768 16.4952C73.7132 14.5224 76.6537 13.271 79.7652 12.8827C82.8767 12.4945 86.0349 12.985 88.8818 14.2986C91.7287 15.6122 94.1506 17.6965 95.8732 20.3152C97.5957 22.934 98.55 25.9826 98.628 29.1156C98.7059 32.2486 97.9044 35.3408 96.3143 38.0419C94.7241 40.743 92.4088 42.945 89.6308 44.3984C89.0287 44.6191 88.5166 45.0327 88.1744 45.5747C87.8321 46.1167 87.679 46.7566 87.7388 47.3947C87.6596 53.5452 87.0713 59.6786 85.98 65.732C84.2097 77.3793 81.3594 88.8368 77.4659 99.9564C76.1335 103.951 74.4547 107.947 72.9358 111.942C72.7093 112.541 72.4428 112.954 71.6034 112.488C69.889 111.511 68.1347 110.597 66.3404 109.744C65.6209 109.411 66.1405 109.118 66.2338 108.825C67.5662 104.83 68.8986 100.742 70.0445 96.6672C72.3128 89.0961 74.0711 81.3817 75.3074 73.5757C76.4421 66.4017 77.0787 59.1577 77.2128 51.8958ZM91.0831 29.8165C91.1302 27.3732 90.2154 25.0092 88.5358 23.2333C86.8562 21.4575 84.546 20.4118 82.1027 20.3215C77.2261 20.4281 72.5494 23.8771 72.5494 29.4436C72.5548 31.9112 73.5171 34.2805 75.234 36.0537C76.951 37.8268 79.2889 38.8657 81.7563 38.9518C84.1907 38.9288 86.5217 37.9647 88.2605 36.2616C89.9993 34.5585 91.0109 32.2487 91.0831 29.8165Z" fill="#2D4798"/>
<path d="M118.877 67.9027C119.13 75.6398 114.094 80.5803 107.258 82.4314C106.627 82.5384 106.039 82.8253 105.567 83.2575C105.094 83.6898 104.756 84.2491 104.594 84.8684C101.963 92.615 98.6643 100.118 94.7338 107.294C93.3081 109.957 91.6559 112.514 90.137 115.124C90.0285 115.388 89.844 115.614 89.6067 115.773C89.3694 115.932 89.0902 116.017 88.8046 116.017C86.4506 116.063 84.0962 115.956 81.7562 115.697C80.4238 115.51 81.3964 114.765 81.583 114.432C83.6898 110.837 85.6153 107.139 87.3523 103.352C90.6567 96.5486 93.2895 89.4393 95.2134 82.1251C95.4469 81.6188 95.4791 81.0427 95.3034 80.5135C95.1278 79.9843 94.7574 79.5417 94.2674 79.2753C91.7263 77.282 90.0399 74.3966 89.5507 71.2053C88.4049 65.7453 89.4308 60.8181 93.6279 56.9695C95.6125 55.0854 98.0715 53.7749 100.743 53.1779C103.414 52.5808 106.197 52.7196 108.796 53.5794C111.394 54.4392 113.711 55.9877 115.498 58.0599C117.285 60.1321 118.476 62.6503 118.944 65.3458C119.008 66.1982 118.986 67.0548 118.877 67.9027ZM112.215 67.9027C112.23 65.7714 111.43 63.7148 109.979 62.153C108.528 60.5913 106.535 59.6422 104.407 59.4997C99.6903 59.4997 95.5865 62.6691 95.5865 67.4898C95.549 69.699 96.3714 71.8364 97.8803 73.4513C99.3891 75.0661 101.466 76.0322 103.674 76.1458C107.778 76.239 112.521 72.8566 112.268 67.8894L112.215 67.9027Z" fill="#2D4798"/>
<path d="M67.8592 79.7414C67.8062 81.4138 67.2899 83.0387 66.3677 84.4352C65.4456 85.8318 64.1538 86.9452 62.6362 87.6516C62.3604 87.7443 62.1226 87.9246 61.959 88.1651C61.7954 88.4055 61.715 88.6929 61.7302 88.9833C61.4904 92.0728 61.2105 95.1623 60.8508 98.3051C60.6376 100.169 60.2645 102.021 59.9581 103.872C59.8248 104.617 59.545 104.577 58.9721 104.165C57.7493 103.204 56.6166 102.134 55.5878 100.969C55.2982 100.65 55.0853 100.27 54.9652 99.8568C54.8451 99.4437 54.8211 99.0086 54.895 98.5848C55.1457 95.4842 55.2302 92.3725 55.1481 89.263C55.1481 88.3441 54.6152 88.2509 54.0422 87.9313C52.3225 87.2068 50.8565 85.9889 49.8295 84.4315C48.8025 82.8741 48.2608 81.0472 48.2729 79.1821C48.2433 77.4539 48.6733 75.7489 49.5191 74.2413C50.3648 72.7336 51.5959 71.4774 53.0865 70.6011C54.5771 69.7248 56.2739 69.2599 58.0032 69.2537C59.7325 69.2476 61.4325 69.7004 62.9293 70.5661C66.1404 72.4304 67.8459 75.2936 67.8592 79.7414ZM58.226 73.7089C57.5197 73.6674 56.8123 73.7695 56.1465 74.0088C55.4808 74.2482 54.8705 74.6199 54.3524 75.1016C53.8344 75.5833 53.4194 76.1648 53.1325 76.8112C52.8456 77.4576 52.6927 78.1554 52.6832 78.8625C52.7764 82.2982 55.0415 84.5887 57.9462 84.5088C58.6766 84.5323 59.4043 84.4076 60.0852 84.1422C60.7661 83.8768 61.3862 83.4762 61.9079 82.9647C62.4296 82.4532 62.8423 81.8413 63.1209 81.166C63.3995 80.4907 63.5383 79.766 63.5289 79.0356C63.5471 78.3334 63.4226 77.6348 63.1628 76.9821C62.9031 76.3294 62.5136 75.7361 62.0179 75.2381C61.5222 74.7402 60.9305 74.3479 60.2787 74.085C59.627 73.8222 58.9286 73.6942 58.226 73.7089Z" fill="#2D4798"/>
</svg>
