<svg width="338" height="440" xmlns="http://www.w3.org/2000/svg" xmlns:xlink="http://www.w3.org/1999/xlink" xml:space="preserve" overflow="hidden"><defs><clipPath id="clip0"><rect x="0" y="0" width="338" height="440"/></clipPath></defs><g clip-path="url(#clip0)"><path d="M0.183182 253.23C5.72406 252.339 11.1759 250.96 16.4748 249.11 18.4426 248.652 18.3055 247.508 18.2139 246.043 16.5556 233.024 17.4571 219.806 20.8683 207.132 21.358 205.696 21.42 204.148 21.046 202.677 20.6725 201.206 19.8792 199.875 18.7631 198.847 15.3306 195.185 12.1275 191.293 8.69499 187.677 7.47294 186.584 6.69514 185.081 6.5098 183.451 6.32409 181.822 6.74346 180.182 7.68822 178.842 11.9418 171.729 17.1459 165.23 23.1562 159.524 23.8735 158.697 24.8636 158.154 25.9469 157.995 27.0301 157.835 28.1346 158.069 29.0599 158.654 34.4598 161.264 39.9974 163.507 45.3973 166.025 46.2541 166.586 47.2562 166.885 48.2802 166.885 49.3047 166.885 50.3068 166.586 51.1635 166.025 62.1999 158.849 74.7157 154.264 87.7743 152.611 90.7488 152.108 91.298 150.826 91.3896 148.034 91.3896 143.044 90.2912 136.315 92.9455 133.568 95.5999 130.822 102.784 132.47 107.91 132.699 115.324 133.065 122.692 133.981 130.06 134.85 131.507 135.078 132.892 135.603 134.129 136.39 135.365 137.178 136.426 138.212 137.244 139.428 138.78 141.278 140.201 143.219 141.501 145.242 146.077 152.795 151.751 158.975 161.362 159.524 161.711 159.478 162.065 159.478 162.414 159.524 172.665 162.408 174.496 166.025 171.567 176.462 170.652 179.62 168.409 178.43 166.991 178.064 158.256 175.517 149.258 173.982 140.174 173.486 115.644 172.296 84.0216 179.208 72.1688 207.727 64.4348 226.496 66.4484 245.494 73.1756 264.033 82.1641 287.61 96.8115 308.613 115.827 325.192 135.792 343.921 159.658 357.991 185.708 366.392 208.269 373.439 231.196 376.004 253.941 367.946 275.267 360.349 287.303 344.691 290.826 322.17 291.889 312.991 291.347 303.697 289.225 294.704 288.786 292.359 288.991 289.938 289.82 287.7 291.604 282.756 293.755 277.904 295.861 273.006 296.867 270.717 297.874 269.161 301.169 270.488 306.844 272.777 312.839 274.242 318.605 276.256 320.01 276.672 321.312 277.374 322.431 278.32 323.549 279.265 324.459 280.433 325.103 281.749 330.634 292.736 334.902 304.316 337.825 316.265 338.42 319.058 337.459 319.47 335.492 320.065 332.954 321.077 330.315 321.814 327.62 322.262 321.03 322.674 320.024 326.519 320.893 331.875 322.568 343.502 321.55 355.358 317.918 366.53 317.548 367.585 317.481 368.723 317.723 369.813 317.966 370.906 318.509 371.91 319.291 372.707 323.273 377.056 326.888 381.865 330.87 385.983 331.818 386.801 332.431 387.939 332.592 389.183 332.752 390.424 332.449 391.682 331.739 392.714 327.617 400.486 322.218 407.512 315.768 413.497 315.101 414.281 314.176 414.796 313.16 414.958 312.144 415.116 311.105 414.906 310.23 414.367 305.151 411.984 299.933 409.788 294.808 407.543 293.642 406.815 292.294 406.426 290.918 406.426 289.542 406.426 288.194 406.815 287.028 407.543 276.315 414.336 264.237 418.681 251.653 420.272 247.992 420.912 246.848 422.376 247.077 426.041 247.397 430.616 247.077 435.195 247.077 440L224.195 440C223.437 439.605 222.616 439.34 221.769 439.223 215.954 439.956 210.061 438.746 205.004 435.783 199.947 432.819 196.011 428.268 193.808 422.833 192.896 420.884 191.538 419.179 189.845 417.849 188.152 416.522 186.17 415.611 184.06 415.188 169.991 411.754 156.468 406.378 143.88 399.214 135.322 394.133 127.726 393.126 119.58 398.802 118.43 399.695 117.004 400.156 115.549 400.104 114.094 400.056 112.703 399.496 111.617 398.527 100.954 391.019 90.2912 383.467 80.0857 375.316 77.7022 373.938 75.9143 371.724 75.0687 369.101 74.2235 366.482 74.3804 363.639 75.5094 361.126 76.6081 358.5 76.8039 355.581 76.0669 352.831 75.3298 350.081 73.7014 347.654 71.4368 345.929 61.8569 337.236 53.6491 327.142 47.0906 315.991 44.5182 311.009 40.8365 306.685 36.3302 303.352 31.8235 300.019 26.6118 297.765 21.0969 296.764 19.1205 296.308 17.2908 295.36 15.7789 294.007 14.2665 292.655 13.1209 290.942 12.4477 289.028 7.8714 279.277 5.39989 268.749 0 259.41L0.183182 253.23Z" fill="#C6211C" fill-rule="evenodd"/><path d="M192.635 134.738C193.365 129.787 191.22 122.773 191.54 115.714 191.54 112.368 189.303 112.185 187.432 111.405 178.715 107.996 170.965 102.489 164.862 95.367 158.759 88.2454 154.49 79.7275 152.43 70.5615 150.05 60.0422 150.65 49.0631 154.162 38.8683 157.674 28.6738 163.959 19.6708 172.304 12.88 180.649 6.08907 190.72 1.78129 201.377 0.444872 212.034-0.891551 222.851 0.796866 232.602 5.31858 242.352 9.8403 250.647 17.015 256.547 26.0292 262.447 35.0437 265.715 45.5377 265.982 56.3224 266.249 67.107 263.504 77.751 258.058 87.0489 252.612 96.3467 244.682 103.927 235.167 108.93 233.105 109.689 231.351 111.113 230.179 112.979 229.006 114.845 228.482 117.047 228.687 119.244 228.415 140.415 226.401 161.528 222.663 182.365 216.6 222.458 206.837 261.897 193.502 300.174 188.938 313.926 183.189 327.678 177.986 341.43 177.211 343.493 176.298 344.913 173.423 343.309 167.551 339.948 161.542 336.8 155.397 333.866 152.933 332.72 154.712 331.712 155.032 330.703 159.595 316.951 164.159 302.878 168.083 288.852 175.852 262.79 181.875 236.235 186.109 209.365 189.995 184.67 192.176 159.735 192.635 134.738ZM240.141 58.735C240.303 50.3247 237.169 42.1873 231.417 36.0744 225.664 29.9614 217.751 26.362 209.383 26.0512 192.681 26.4177 176.663 38.2904 176.663 57.4513 176.681 65.9455 179.977 74.1017 185.857 80.2049 191.738 86.3087 199.746 89.8847 208.197 90.1814 216.535 90.1019 224.518 86.7832 230.474 80.9208 236.429 75.0583 239.894 67.1073 240.141 58.735Z" fill="#2D4798" fill-rule="evenodd"/><path d="M335.648 189.798C336.516 216.358 319.247 233.318 295.81 239.672 293.644 240.04 291.631 241.024 290.01 242.509 288.389 243.992 287.231 245.912 286.673 248.038 277.654 274.631 266.343 300.389 252.866 325.021 247.977 334.164 242.312 342.941 237.104 351.901 236.732 352.808 236.099 353.583 235.286 354.129 234.472 354.675 233.514 354.963 232.535 354.963 224.464 355.125 216.391 354.758 208.368 353.865 203.799 353.227 207.134 350.666 207.774 349.522 214.998 337.184 221.6 324.49 227.556 311.489 238.886 288.134 247.913 263.729 254.51 238.621 255.311 236.883 255.421 234.905 254.819 233.088 254.217 231.272 252.947 229.753 251.266 228.838 242.553 221.995 236.771 212.09 235.094 201.135 231.165 182.392 234.683 165.478 249.074 152.267 255.878 145.799 264.31 141.3 273.469 139.251 282.629 137.201 292.172 137.677 301.082 140.629 309.992 143.58 317.934 148.896 324.062 156.01 330.19 163.123 334.273 171.767 335.876 181.021 336.098 183.947 336.021 186.888 335.648 189.798ZM312.805 189.798C312.856 182.482 310.114 175.422 305.138 170.06 300.163 164.699 293.329 161.441 286.033 160.952 269.86 160.952 255.789 171.832 255.789 188.381 255.661 195.964 258.481 203.302 263.654 208.845 268.828 214.389 275.951 217.705 283.521 218.095 297.592 218.415 313.856 206.804 312.988 189.753L312.805 189.798Z" fill="#2D4798" fill-rule="evenodd"/><path d="M160 230.047C159.818 235.796 158.053 241.381 154.898 246.181 151.744 250.981 147.326 254.807 142.135 257.236 141.191 257.554 140.378 258.174 139.818 259.001 139.259 259.827 138.984 260.815 139.036 261.813 138.215 272.432 137.258 283.051 136.028 293.853 135.298 300.261 134.022 306.623 132.974 312.985 132.518 315.548 131.561 315.411 129.602 313.992 125.419 310.691 121.545 307.014 118.026 303.007 117.035 301.913 116.307 300.606 115.896 299.186 115.485 297.766 115.403 296.271 115.656 294.814 116.513 284.157 116.802 273.462 116.522 262.774 116.522 259.616 114.699 259.295 112.739 258.197 106.857 255.707 101.842 251.521 98.3293 246.168 94.8169 240.815 92.9635 234.536 93.0052 228.125 92.9039 222.185 94.3745 216.325 97.2678 211.143 100.16 205.961 104.371 201.643 109.47 198.632 114.568 195.62 120.372 194.022 126.288 194 132.202 193.979 138.017 195.535 143.137 198.511 154.121 204.919 159.954 214.76 160 230.047ZM127.05 209.313C124.634 209.17 122.214 209.521 119.937 210.344 117.66 211.167 115.572 212.445 113.8 214.1 112.028 215.756 110.609 217.754 109.627 219.976 108.646 222.198 108.123 224.596 108.091 227.026 108.409 238.836 116.157 246.708 126.093 246.434 128.591 246.514 131.08 246.085 133.409 245.173 135.738 244.261 137.859 242.885 139.643 241.126 141.428 239.368 142.84 237.265 143.793 234.944 144.746 232.623 145.22 230.132 145.188 227.621 145.25 225.208 144.825 222.807 143.936 220.564 143.047 218.32 141.715 216.281 140.02 214.569 138.324 212.858 136.3 211.509 134.071 210.606 131.842 209.703 129.453 209.262 127.05 209.313Z" fill="#2D4798" fill-rule="evenodd"/></g></svg>