<svg width="338" height="440" xmlns="http://www.w3.org/2000/svg" xmlns:xlink="http://www.w3.org/1999/xlink" xml:space="preserve" overflow="hidden"><defs><clipPath id="clip0"><rect x="0" y="0" width="338" height="440"/></clipPath></defs><g clip-path="url(#clip0)"><path d="M0.183182 253.229C5.72407 252.338 11.1755 250.959 16.4748 249.109 18.4426 248.652 18.3052 247.507 18.214 246.042 16.5552 233.023 17.4571 219.805 20.8679 207.132 21.358 205.695 21.42 204.147 21.0461 202.676 20.6725 201.206 19.8792 199.875 18.7628 198.846 15.3307 195.184 12.1275 191.293 8.69536 187.677 7.47295 186.584 6.69515 185.08 6.5098 183.451 6.32374 181.822 6.74347 180.182 7.68822 178.842 11.9418 171.729 17.1459 165.23 23.1563 159.524 23.8735 158.697 24.8637 158.154 25.9469 157.994 27.0301 157.835 28.1343 158.069 29.0595 158.654 34.4598 161.264 39.9974 163.507 45.3973 166.024 46.2541 166.585 47.2562 166.885 48.2803 166.885 49.3047 166.885 50.3068 166.585 51.1636 166.024 62.1999 158.849 74.7158 154.264 87.7744 152.612 90.7489 152.108 91.2981 150.826 91.3897 148.034 91.3897 143.044 90.2913 136.315 92.9456 133.568 95.6 130.822 102.784 132.47 107.91 132.699 115.324 133.065 122.692 133.981 130.06 134.85 131.508 135.078 132.893 135.603 134.129 136.39 135.366 137.178 136.426 138.212 137.245 139.428 138.78 141.278 140.201 143.219 141.501 145.242 146.077 152.795 151.752 158.975 161.362 159.524 161.711 159.478 162.065 159.478 162.414 159.524 172.665 162.408 174.496 166.024 171.567 176.461 170.652 179.62 168.41 178.43 166.991 178.063 158.256 175.517 149.258 173.981 140.174 173.486 115.644 172.296 84.0216 179.208 72.1689 207.727 64.4349 226.496 66.4485 245.493 73.1757 264.032 82.1642 287.608 96.8116 308.612 115.827 325.191 135.792 343.918 159.658 357.988 185.708 366.389 208.269 373.44 231.197 376.004 253.941 367.947 275.267 360.346 287.302 344.692 290.826 322.169 291.891 312.991 291.348 303.696 289.225 294.703 288.786 292.357 288.992 289.937 289.819 287.699 291.606 282.755 293.756 277.903 295.861 273.005 296.867 270.716 297.874 269.16 301.168 270.487 306.845 272.776 312.839 274.241 318.605 276.255 320.01 276.671 321.312 277.373 322.432 278.319 323.551 279.264 324.461 280.432 325.104 281.748 330.634 292.735 334.903 304.315 337.826 316.264 338.42 319.055 337.458 319.467 335.49 320.062 332.956 321.076 330.314 321.812 327.621 322.262 321.03 322.671 320.024 326.518 320.893 331.874 322.569 343.499 321.552 355.355 317.918 366.527 317.547 367.582 317.482 368.72 317.723 369.813 317.967 370.906 318.509 371.907 319.292 372.707 323.273 377.056 326.89 381.862 330.871 385.983 331.819 386.798 332.43 387.939 332.591 389.18 332.753 390.421 332.447 391.679 331.74 392.71 327.618 400.486 322.219 407.512 315.769 413.493 315.102 414.277 314.175 414.796 313.161 414.954 312.145 415.116 311.104 414.903 310.232 414.363 305.152 411.985 299.935 409.785 294.807 407.543 293.642 406.811 292.296 406.423 290.919 406.423 289.541 406.423 288.195 406.811 287.027 407.543 276.315 414.336 264.237 418.681 251.653 420.269 247.992 420.908 246.848 422.376 247.077 426.037 247.397 430.616 247.077 435.191 247.077 440L224.195 440C223.437 439.602 222.617 439.34 221.77 439.22 215.955 439.952 210.061 438.746 205.005 435.779 199.948 432.816 196.012 428.264 193.808 422.833 192.896 420.884 191.539 419.176 189.845 417.849 188.152 416.518 186.17 415.608 184.061 415.188 169.991 411.751 156.468 406.375 143.88 399.211 135.322 394.13 127.726 393.123 119.58 398.798 118.43 399.692 117.004 400.153 115.549 400.105 114.094 400.053 112.703 399.496 111.617 398.527 100.954 391.019 90.2913 383.464 80.0858 375.317 77.7022 373.938 75.9144 371.724 75.0688 369.102 74.2236 366.479 74.3804 363.639 75.5095 361.127 76.6082 358.497 76.804 355.582 76.0669 352.832 75.3299 350.082 73.7014 347.651 71.4369 345.926 61.857 337.236 53.6492 327.14 47.0907 315.989 44.5182 311.008 40.8365 306.683 36.3302 303.352 31.8235 300.018 26.6118 297.764 21.0969 296.763 19.1205 296.307 17.2912 295.359 15.7789 294.006 14.2665 292.654 13.1206 290.941 12.4477 289.027 7.87105 279.277 5.3999 268.748 0 259.409L0.183182 253.229Z" fill="#C6211C" fill-rule="evenodd"/><path d="M192.635 134.345C193.365 129.409 191.22 122.416 191.54 115.377 191.54 112.041 189.303 111.858 187.432 111.081 178.715 107.681 170.965 102.19 164.862 95.0893 158.759 87.9884 154.49 79.4956 152.43 70.3564 150.05 59.8677 150.65 48.9206 154.162 38.7551 157.674 28.5903 163.959 19.6136 172.304 12.8428 180.649 6.07134 190.72 1.77611 201.377 0.443576 212.034-0.888954 222.851 0.794545 232.602 5.3031 242.352 9.81201 250.647 16.9654 256.547 25.9537 262.447 34.9416 265.715 45.4051 265.982 56.1583 266.249 66.9115 263.504 77.5246 258.058 86.7954 252.612 96.0661 244.682 103.624 235.167 108.612 233.105 109.37 231.351 110.789 230.179 112.65 229.006 114.51 228.482 116.706 228.687 118.896 228.415 140.006 226.401 161.057 222.663 181.834 216.6 221.81 206.837 261.134 193.502 299.299 188.938 313.01 183.189 326.722 177.986 340.437 177.211 342.493 176.298 343.911 173.423 342.311 167.551 338.958 161.542 335.821 155.397 332.893 152.933 331.75 154.712 330.745 155.032 329.739 159.595 316.027 164.159 301.996 168.083 288.01 175.852 262.025 181.875 235.547 186.109 208.755 189.996 184.132 192.176 159.27 192.635 134.345ZM240.141 58.5639C240.303 50.1782 237.169 42.0641 231.417 35.9693 225.664 29.8738 217.751 26.2852 209.383 25.9753 192.681 26.3407 176.663 38.1789 176.663 57.284 176.681 65.7534 179.977 73.8855 185.857 79.9713 191.738 86.0574 199.746 89.6229 208.197 89.9188 216.535 89.8399 224.518 86.5305 230.474 80.6851 236.429 74.8393 239.894 66.9119 240.141 58.5639Z" fill="#FFFFFF" fill-rule="evenodd"/><path d="M335.648 189.798C336.516 216.358 319.248 233.319 295.809 239.673 293.645 240.04 291.629 241.025 290.01 242.509 288.389 243.993 287.23 245.913 286.674 248.039 277.653 274.632 266.342 300.388 252.865 325.022 247.977 334.164 242.312 342.941 237.104 351.901 236.732 352.807 236.099 353.583 235.285 354.129 234.472 354.675 233.514 354.967 232.535 354.963 224.464 355.125 216.391 354.758 208.368 353.868 203.799 353.226 207.134 350.669 207.774 349.526 214.998 337.185 221.6 324.49 227.556 311.49 238.886 288.135 247.913 263.73 254.51 238.622 255.31 236.883 255.421 234.905 254.818 233.089 254.216 231.273 252.946 229.753 251.266 228.838 242.553 221.996 236.771 212.091 235.094 201.135 231.165 182.393 234.682 165.478 249.073 152.267 255.878 145.799 264.31 141.3 273.47 139.25 282.628 137.201 292.171 137.677 301.082 140.629 309.99 143.58 317.935 148.896 324.062 156.01 330.189 163.123 334.273 171.768 335.878 181.021 336.097 183.947 336.022 186.888 335.648 189.798ZM312.805 189.798C312.857 182.482 310.114 175.422 305.138 170.061 300.163 164.699 293.329 161.442 286.033 160.952 269.86 160.952 255.789 171.833 255.789 188.381 255.661 195.965 258.48 203.302 263.654 208.846 268.827 214.389 275.949 217.705 283.52 218.096 297.592 218.416 313.855 206.804 312.987 189.753L312.805 189.798Z" fill="#FFFFFF" fill-rule="evenodd"/><path d="M160 230.048C159.818 235.796 158.053 241.381 154.898 246.181 151.744 250.981 147.326 254.808 142.135 257.236 141.191 257.555 140.378 258.174 139.818 259.001 139.259 259.828 138.984 260.815 139.036 261.813 138.215 272.432 137.258 283.051 136.028 293.853 135.298 300.26 134.022 306.622 132.974 312.988 132.518 315.548 131.561 315.411 129.602 313.991 125.419 310.692 121.545 307.014 118.026 303.006 117.035 301.913 116.307 300.607 115.896 299.188 115.485 297.767 115.403 296.271 115.656 294.814 116.513 284.158 116.802 273.462 116.522 262.774 116.522 259.616 114.699 259.296 112.739 258.197 106.857 255.707 101.842 251.521 98.3293 246.168 94.8165 240.815 92.9635 234.536 93.0052 228.125 92.9039 222.185 94.3745 216.324 97.2678 211.143 100.16 205.961 104.371 201.643 109.47 198.631 114.568 195.619 120.372 194.021 126.288 194 132.202 193.979 138.017 195.535 143.137 198.511 154.121 204.919 159.954 214.76 160 230.048ZM127.05 209.313C124.634 209.171 122.214 209.521 119.937 210.344 117.66 211.166 115.572 212.445 113.8 214.1 112.028 215.755 110.609 217.754 109.627 219.976 108.646 222.198 108.123 224.596 108.091 227.026 108.409 238.836 116.157 246.708 126.093 246.434 128.591 246.514 131.08 246.086 133.409 245.174 135.738 244.261 137.859 242.885 139.643 241.127 141.428 239.369 142.84 237.265 143.793 234.944 144.746 232.623 145.22 230.132 145.188 227.622 145.25 225.208 144.825 222.807 143.936 220.563 143.047 218.32 141.715 216.281 140.02 214.569 138.324 212.858 136.3 211.509 134.071 210.606 131.842 209.702 129.453 209.263 127.05 209.313Z" fill="#FFFFFF" fill-rule="evenodd"/></g></svg>